ply
format ascii 1.0
element vertex 18
property float x
property float y
property float z
property uchar red
property uchar green
property uchar blue
element face 22
property list uchar int vertex_index
end_header
0.000000 1.000000 2.000000 114 68 188
3.000000 4.000000 5.000000 109 120 80
6.000000 7.000000 8.000000 102 47 102
9.000000 10.000000 11.000000 143 142 79
12.000000 13.000000 14.000000 160 52 3
15.000000 16.000000 17.000000 124 114 32
18.000000 19.000000 20.000000 70 18 189
21.000000 22.000000 23.000000 123 116 190
24.000000 25.000000 26.000000 247 56 17
27.000000 28.000000 29.000000 157 230 3
30.000000 31.000000 32.000000 139 79 204
33.000000 34.000000 35.000000 66 22 167
36.000000 37.000000 38.000000 208 141 155
39.000000 40.000000 41.000000 125 158 16
42.000000 43.000000 44.000000 54 157 56
45.000000 46.000000 47.000000 53 118 49
48.000000 49.000000 50.000000 163 35 84
51.000000 52.000000 53.000000 116 30 193
3 0 1 2
3 3 4 5
3 6 7 8
3 9 10 11
3 12 13 14
3 15 16 17
3 0 1 2
3 3 4 5
3 6 7 8
3 9 10 11
3 12 13 14
3 15 16 17
3 0 1 2
3 3 4 5
3 6 7 8
3 9 10 11
3 12 13 14
3 15 16 17
3 0 1 2
3 3 4 5
3 6 7 8
3 9 10 11